<svg id="visual" viewBox="0 0 900 600" width="900" height="600" xmlns="http://www.w3.org/2000/svg" xmlns:xlink="http://www.w3.org/1999/xlink" version="1.1"><rect x="0" y="0" width="900" height="600" fill="#021144"></rect><path d="M0 436L129 365L257 341L386 418L514 408L643 439L771 412L900 348L900 601L771 601L643 601L514 601L386 601L257 601L129 601L0 601Z" fill="#6600ff"></path><path d="M0 424L129 405L257 376L386 429L514 411L643 385L771 459L900 418L900 601L771 601L643 601L514 601L386 601L257 601L129 601L0 601Z" fill="#006fff"></path><path d="M0 449L129 468L257 425L386 452L514 436L643 427L771 465L900 457L900 601L771 601L643 601L514 601L386 601L257 601L129 601L0 601Z" fill="#2a9dfc"></path><path d="M0 494L129 467L257 451L386 494L514 468L643 466L771 461L900 500L900 601L771 601L643 601L514 601L386 601L257 601L129 601L0 601Z" fill="#4facf7"></path><path d="M0 537L129 518L257 529L386 526L514 499L643 517L771 482L900 503L900 601L771 601L643 601L514 601L386 601L257 601L129 601L0 601Z" fill="#2a9dfc"></path><path d="M0 537L129 553L257 558L386 508L514 532L643 519L771 532L900 540L900 601L771 601L643 601L514 601L386 601L257 601L129 601L0 601Z" fill="#006fff"></path><path d="M0 576L129 565L257 584L386 549L514 541L643 541L771 564L900 569L900 601L771 601L643 601L514 601L386 601L257 601L129 601L0 601Z" fill="#6600ff"></path></svg>